<?xml version="1.0" encoding="UTF-8" standalone="no"?>
<svg
   width="85.651443mm"
   height="84.396614mm"
   viewBox="0 0 85.651443 84.396614"
   version="1.1"
   id="svg8"
   inkscape:version="1.3.2 (091e20e, 2023-11-25, custom)"
   sodipodi:docname="favicon.svg"
   xmlns:inkscape="http://www.inkscape.org/namespaces/inkscape"
   xmlns:sodipodi="http://sodipodi.sourceforge.net/DTD/sodipodi-0.dtd"
   xmlns="http://www.w3.org/2000/svg"
   xmlns:svg="http://www.w3.org/2000/svg"
   xmlns:rdf="http://www.w3.org/1999/02/22-rdf-syntax-ns#"
   xmlns:cc="http://creativecommons.org/ns#"
   xmlns:dc="http://purl.org/dc/elements/1.1/">
  <defs
     id="defs2">
    <clipPath
       clipPathUnits="userSpaceOnUse"
       id="clipPath4513">
      <g
         inkscape:label="Clip"
         id="use4515">
        <ellipse
           ry="42.320198"
           rx="42.949425"
           cy="120.59138"
           cx="103.87167"
           id="ellipse1"
           style="opacity:1;fill:#f7e5ff;fill-opacity:1;stroke:#ca52ff;stroke-width:4.921;stroke-linecap:butt;stroke-linejoin:miter;stroke-miterlimit:4;stroke-dasharray:none;stroke-opacity:1" />
        <path
           sodipodi:nodetypes="cccccccsccccccccc"
           inkscape:connector-curvature="0"
           id="path1"
           d="m 92.684104,127.12901 c -3.970597,5.2357 -5.320089,7.99616 -9.331298,17.70979 -2.059798,0.35071 -3.458143,0.98489 -4.856488,1.80807 1.657237,-17.30257 3.851897,-48.626006 4.652634,-53.2548 6.135187,7.81238 7.740323,9.39054 13.342515,14.75356 7.603193,-5.60266 12.987103,-10.189454 19.507373,-18.055264 3.16858,-0.431627 4.95586,-0.922454 6.76082,-1.143566 0,0 -4.36797,6.643958 -10.96353,15.59962 l -9.30973,13.19097 11.99015,15.55204 12.95999,16.1696 c -3.90737,-0.5462 -6.92731,-1.43612 -9.48045,-0.75761 -9.80997,-10.23013 -14.0181,-13.68349 -25.271986,-21.57241 z m 4.789173,-6.12426 c -2.371848,-2.95205 -4.875234,-8.19175 -8.721618,-11.56594 -0.738557,4.95934 -1.877018,13.26515 -0.38519,11.20768 2.744738,-1.81926 5.474529,-1.61691 9.106808,0.35826 z"
           style="opacity:1;fill:#d98e04;fill-opacity:1;stroke:#ca52ff;stroke-width:1.92333;stroke-linecap:butt;stroke-linejoin:miter;stroke-miterlimit:4;stroke-dasharray:none;stroke-opacity:1" />
      </g>
    </clipPath>
    <clipPath
       clipPathUnits="userSpaceOnUse"
       id="clipPath1">
      <g
         id="g2"
         transform="matrix(1.0028885,0,0,1.0028885,60.922251,78.271179)">
        <g
           inkscape:label="Clip"
           id="use1"
           style="fill:none;fill-opacity:1"
           transform="matrix(0.99711983,0,0,0.99711983,-60.746785,-78.045745)"
           clip-path="url(#clipPath1)">
          <ellipse
             ry="42.320198"
             rx="42.949425"
             cy="120.59138"
             cx="103.87167"
             id="ellipse2"
             style="fill:none;fill-opacity:1;stroke:#ca52ff;stroke-width:4.921;stroke-linecap:butt;stroke-linejoin:miter;stroke-miterlimit:4;stroke-dasharray:none;stroke-opacity:1"
             transform="matrix(0.99711983,0,0,0.99711983,-60.746785,-78.045745)" />
          <path
             sodipodi:nodetypes="cccccccsccccccccc"
             inkscape:connector-curvature="0"
             id="path2"
             d="m 92.684104,127.12901 c -3.970597,5.2357 -5.320089,7.99616 -9.331298,17.70979 -2.059798,0.35071 -3.458143,0.98489 -4.856488,1.80807 1.657237,-17.30257 3.851897,-48.626006 4.652634,-53.2548 6.135187,7.81238 7.740323,9.39054 13.342515,14.75356 7.603193,-5.60266 12.987103,-10.189454 19.507373,-18.055264 3.16858,-0.431627 4.95586,-0.922454 6.76082,-1.143566 0,0 -4.36797,6.643958 -10.96353,15.59962 l -9.30973,13.19097 11.99015,15.55204 12.95999,16.1696 c -3.90737,-0.5462 -6.92731,-1.43612 -9.48045,-0.75761 -9.80997,-10.23013 -14.0181,-13.68349 -25.271986,-21.57241 z m 4.789173,-6.12426 c -2.371848,-2.95205 -4.875234,-8.19175 -8.721618,-11.56594 -0.738557,4.95934 -1.877018,13.26515 -0.38519,11.20768 2.744738,-1.81926 5.474529,-1.61691 9.106808,0.35826 z"
             style="fill:none;fill-opacity:1;stroke:#ca52ff;stroke-width:1.92333;stroke-linecap:butt;stroke-linejoin:miter;stroke-miterlimit:4;stroke-dasharray:none;stroke-opacity:1"
             transform="matrix(0.99711983,0,0,0.99711983,-60.746785,-78.045745)" />
        </g>
      </g>
    </clipPath>
  </defs>
  <sodipodi:namedview
     id="base"
     pagecolor="#ffffff"
     bordercolor="#666666"
     borderopacity="1.0"
     inkscape:pageopacity="0.0"
     inkscape:pageshadow="2"
     inkscape:zoom="1.979899"
     inkscape:cx="173.74624"
     inkscape:cy="146.47212"
     inkscape:document-units="mm"
     inkscape:current-layer="layer2"
     showgrid="false"
     inkscape:snap-to-guides="false"
     inkscape:snap-grids="false"
     inkscape:snap-others="false"
     inkscape:object-nodes="false"
     inkscape:snap-nodes="false"
     inkscape:snap-global="false"
     inkscape:window-width="1572"
     inkscape:window-height="1284"
     inkscape:window-x="866"
     inkscape:window-y="636"
     inkscape:window-maximized="0"
     inkscape:document-rotation="0"
     inkscape:showpageshadow="2"
     inkscape:pagecheckerboard="0"
     inkscape:deskcolor="#d1d1d1" />
  <metadata
     id="metadata5">
    <rdf:RDF>
      <cc:Work
         rdf:about="">
        <dc:format>image/svg+xml</dc:format>
        <dc:type
           rdf:resource="http://purl.org/dc/dcmitype/StillImage" />
        <dc:title />
      </cc:Work>
    </rdf:RDF>
  </metadata>
  <g
     inkscape:groupmode="layer"
     id="layer2"
     inkscape:label="icon">
    <path
       style="fill:#3f4227;fill-opacity:1;stroke:#812871;stroke-width:12;stroke-linecap:round;stroke-linejoin:round;stroke-dasharray:none;stroke-opacity:1;paint-order:normal"
       d="M 8.1517206,8.2614235 C 11.144512,6.1688728 75.957108,6.4216144 77.754604,8.3702407 79.903648,10.699973 79.138686,75.88341 77.077989,77.216076 74.231082,79.057188 10.693188,79.234997 8.2853552,77.349711 6.235825,75.744969 5.0015128,10.464039 8.1517206,8.2614235 Z"
       id="path3"
       sodipodi:nodetypes="sssss" />
    <path
       sodipodi:nodetypes="cccccccccccccccc"
       inkscape:connector-curvature="0"
       id="path4497-8"
       d="M 37.026336,60.148061 C 31.460245,66.030537 30.443512,63.834428 25.126278,75.376589 22.244377,75.772059 12.712811,75.077507 8.7020919,76.133905 11.02076,56.622934 12.422256,13.099796 13.542582,7.8802104 24.829492,13.364127 26.27957,10.887049 37.474394,23.235307 54.041603,7.5979238 51.962356,11.261733 60.658972,8.2579735 65.372075,7.6781355 73.15787,7.2030704 74.0983,7.4810601 59.992632,24.325103 68.006863,18.125371 54.721051,39.630019 l 13.565835,15.418413 9.787082,21.693513 C 72.607098,76.12603 66.199185,75.122525 62.627042,75.887638 49.277911,64.310073 55.176223,68.777223 37.026336,60.148061 Z M 46.506948,49.141258 C 43.880666,43.144079 42.037642,37.22765 31.010816,31.101163 c -3.436152,4.719624 -4.710297,24.037192 -2.20802,21.993293 4.417999,-1.410672 10.41144,-3.392239 17.704152,-3.953198 z"
       style="fill:#ca7a00;fill-opacity:1;stroke:#ffb84d;stroke-width:5.75922;stroke-linecap:butt;stroke-linejoin:round;stroke-miterlimit:4;stroke-dasharray:none;stroke-opacity:1" />
  </g>
</svg>
